<?xml version="1.0" standalone="no"?>
<!DOCTYPE svg PUBLIC "-//W3C//DTD SVG 20010904//EN"
 "http://www.w3.org/TR/2001/REC-SVG-20010904/DTD/svg10.dtd">
<svg version="1.0" xmlns="http://www.w3.org/2000/svg"
 width="704.000000pt" height="704.000000pt" viewBox="0 0 704.000000 704.000000"
 preserveAspectRatio="xMidYMid meet">
<metadata>
Created by potrace 1.14, written by Peter Selinger 2001-2017
</metadata>
<g transform="translate(0.000000,704.000000) scale(0.100000,-0.100000)"
fill="#000000" stroke="none">
<path d="M1860 7014 c-42 -15 -63 -31 -83 -63 l-22 -36 -3 -735 c-3 -518 -7
-737 -15 -742 -6 -3 -103 -29 -216 -58 -396 -98 -417 -109 -428 -211 -5 -52
-4 -56 46 -129 84 -122 482 -679 504 -705 5 -5 93 -129 197 -275 267 -374 266
-374 274 -387 9 -16 -68 12 -479 177 -510 205 -536 212 -596 168 -52 -39 -59
-64 -65 -236 -3 -86 -7 -168 -9 -182 -2 -14 -4 -39 -4 -57 -1 -29 -8 -35 -88
-79 -148 -79 -202 -108 -368 -194 -328 -171 -440 -233 -462 -258 l-21 -25 -5
24 c-2 13 -5 -23 -5 -81 0 -58 3 -97 7 -87 6 16 11 13 36 -20 26 -32 60 -74
174 -208 9 -11 100 -117 201 -236 294 -343 350 -410 350 -423 0 -5 -27 -98
-59 -206 -33 -108 -62 -212 -65 -231 -8 -46 27 -108 74 -130 34 -16 424 -115
956 -243 280 -67 494 -119 964 -232 151 -37 276 -68 278 -69 4 -3 36 -219 52
-345 7 -52 14 -102 15 -110 2 -8 8 -51 15 -95 7 -44 18 -92 26 -106 28 -56
113 -83 175 -56 28 13 159 118 419 336 25 21 119 100 210 175 91 75 174 145
185 154 11 10 61 51 110 92 50 41 92 77 95 80 3 3 28 24 55 45 28 22 52 42 55
45 15 16 303 250 305 248 6 -8 64 -115 127 -237 39 -75 85 -163 103 -196 18
-33 63 -118 100 -190 105 -200 296 -557 312 -582 8 -12 34 -29 57 -38 54 -21
110 -8 155 34 28 26 31 35 31 89 0 56 -6 72 -103 264 -57 112 -117 228 -134
258 -16 30 -65 123 -108 205 -43 83 -92 177 -110 210 -18 33 -73 139 -124 236
-87 170 -90 177 -69 182 13 3 282 63 598 132 316 70 708 156 870 191 162 36
307 70 323 76 36 14 74 60 86 106 18 65 -8 100 -270 355 l-239 232 136 365
c75 201 251 669 392 1040 208 553 255 686 259 738 3 35 1 61 -4 60 -5 -2 -20
9 -34 24 -18 20 -64 39 -184 78 -88 28 -182 59 -210 68 l-50 17 -93 360 c-126
492 -191 731 -209 776 -23 60 -95 96 -155 79 -29 -9 -144 -85 -683 -451 -121
-82 -225 -147 -232 -145 -7 3 -63 38 -125 79 -320 209 -319 209 -389 180 -75
-30 -74 -25 -214 -648 -42 -187 -79 -344 -83 -349 -6 -11 0 -29 -220 619 -152
447 -241 708 -319 933 -32 93 -70 126 -147 126 -60 1 -57 3 -357 -243 -90 -74
-169 -138 -176 -143 -14 -11 -201 114 -788 527 -372 263 -405 284 -450 289
-22 3 -47 3 -55 0z"/>
<path d="M1768 3 c970 -2 2554 -2 3520 0 966 1 173 2 -1763 2 -1936 0 -2727
-1 -1757 -2z"/>
</g>
</svg>
